# xmcd
#
# Track frame offsets:
#	150
#	11231
#	24316
#	37211
#	54209
#	70239
#	91110
#	103912
#	114898
#	129241
#	140631
#	150912
#	160034
#
# Disc length: 2314 seconds
#
# Revision: 1
# Processed by: cddbd v1.5.2PL0 Copyright (c) Steve Scherf et al.
# Submitted via: audiograbber 1.83.01
#
DISCID=9c09080d
DTITLE=Martin Langer - Longing For Memphis
DYEAR=1900
DGENRE=Blues
TTITLE0=Ride On
TTITLE1=Old Time Hillbilly
TTITLE2=Cryin' Time
TTITLE3=Life Will Be Better
TTITLE4=Mothers House
TTITLE5=Down By The River
TTITLE6=You're The One I Want
TTITLE7=Louisianna Woman Mississippi Man
TTITLE8=If You Look You Will Find
TTITLE9=Cry
TTITLE10=1St Rag
TTITLE11=Tired And Sleepy
TTITLE12=I Saw The Light
EXTD=
EXTT0=
EXTT1=
EXTT2=
EXTT3=
EXTT4=
EXTT5=
EXTT6=
EXTT7=
EXTT8=
EXTT9=
EXTT10=
EXTT11=
EXTT12=
PLAYORDER=
